# xmcd
#
# Track frame offsets:
#        150
#        28778
#        84695
#        110125
#        140068
#        162345
#        186005
#        214758
#        239455
#
# Disc length: 3821 seconds
#
# Revision: 11
# Processed by: cddbd v1.5.2PL0 Copyright (c) Steve Scherf et al.
# Submitted via: jack 3.1.1
#
DISCID=830eeb09
DTITLE=Various Artist - The Alligator Records 20th Anniversary Tour CD2
DYEAR=1993
DGENRE=Blues
TTITLE0=Lonnie Brooks Blues Band - Wife for Tonight
TTITLE1=Lonnie Brooks Blues Band - I Want All My Money Back
TTITLE2=Lonnie Brooks Blues Band (with Katie Webster) - Those Lonely,
TTITLE2=Lonely Nights
TTITLE3=Lonnie Brooks Blues Band - Two Headed Man
TTITLE4=Koko Taylor and Her Blues Machine - Something Strange Is Going O
TTITLE4=n
TTITLE5=Koko Taylor and Her Blues Machine - I'd Rather Go Blind
TTITLE6=Koko Taylor and Her Blues Machine - Wang Dang Doodle
TTITLE7=Koko Taylor and Her Blues Machine (with Lonnie Brooks) - It's a
TTITLE7=Dirty Job
TTITLE8=All Star Jam - Sweet Home Chicago
EXTD=LABEL =Alligator Records and Artist Mgmt., Inc.\nID =ALCD107/108\n
EXTD=UPC =014551-1078-28\nCOPYRIGHT =1993\n*****\n2-disc set: AD2 10
EXTD=78
EXTT0=The Lonnie Brooks Blues Band
EXTT1=The Lonnie Brooks Blues Band
EXTT2=The Lonnie Brooks Blues Band
EXTT3=The Lonnie Brooks Blues Band
EXTT4=Koko Taylor And Her Blues Machine
EXTT5=Koko Taylor And Her Blues Machine
EXTT6=Koko Taylor And Her Blues Machine
EXTT7=Koko Taylor And Her Blues Machine
EXTT8=All Star Jam
PLAYORDER=
